<mxfile host="app.diagrams.net" agent="Mozilla/5.0 (Windows NT 10.0; Win64; x64) AppleWebKit/537.36 (KHTML, like Gecko) Chrome/133.0.0.0 Safari/537.36" version="26.0.16">
  <diagram name="Página-1" id="kfZdagnQ-Zke0UY-R6xu">
    <mxGraphModel dx="1238" dy="460" grid="1" gridSize="10" guides="1" tooltips="1" connect="1" arrows="1" fold="1" page="1" pageScale="1" pageWidth="827" pageHeight="1169" math="0" shadow="0">
      <root>
        <mxCell id="0" />
        <mxCell id="1" parent="0" />
        <mxCell id="uQjoeCXEevMCi2fpwpuB-1" value="cpf&lt;br&gt;&lt;hr&gt;" style="rounded=0;whiteSpace=wrap;html=1;" parent="1" vertex="1">
          <mxGeometry x="80" y="160" width="80" height="40" as="geometry" />
        </mxCell>
        <mxCell id="uQjoeCXEevMCi2fpwpuB-2" value="Funcionário" style="text;html=1;align=center;verticalAlign=middle;resizable=0;points=[];autosize=1;strokeColor=none;fillColor=none;" parent="1" vertex="1">
          <mxGeometry x="75" y="130" width="90" height="30" as="geometry" />
        </mxCell>
        <mxCell id="uQjoeCXEevMCi2fpwpuB-3" value="nome" style="rounded=0;whiteSpace=wrap;html=1;" parent="1" vertex="1">
          <mxGeometry x="160" y="160" width="80" height="40" as="geometry" />
        </mxCell>
        <mxCell id="uQjoeCXEevMCi2fpwpuB-4" value="endereço" style="rounded=0;whiteSpace=wrap;html=1;" parent="1" vertex="1">
          <mxGeometry x="240" y="160" width="80" height="40" as="geometry" />
        </mxCell>
        <mxCell id="uQjoeCXEevMCi2fpwpuB-5" value="salário" style="rounded=0;whiteSpace=wrap;html=1;" parent="1" vertex="1">
          <mxGeometry x="320" y="160" width="80" height="40" as="geometry" />
        </mxCell>
        <mxCell id="uQjoeCXEevMCi2fpwpuB-6" value="sexo" style="rounded=0;whiteSpace=wrap;html=1;" parent="1" vertex="1">
          <mxGeometry x="400" y="160" width="80" height="40" as="geometry" />
        </mxCell>
        <mxCell id="uQjoeCXEevMCi2fpwpuB-7" value="telefone" style="rounded=0;whiteSpace=wrap;html=1;" parent="1" vertex="1">
          <mxGeometry x="480" y="160" width="80" height="40" as="geometry" />
        </mxCell>
        <mxCell id="uQjoeCXEevMCi2fpwpuB-8" value="sigla&lt;hr&gt;" style="rounded=0;whiteSpace=wrap;html=1;" parent="1" vertex="1">
          <mxGeometry x="80" y="280" width="80" height="40" as="geometry" />
        </mxCell>
        <mxCell id="uQjoeCXEevMCi2fpwpuB-9" value="Departamento" style="text;html=1;align=center;verticalAlign=middle;resizable=0;points=[];autosize=1;strokeColor=none;fillColor=none;" parent="1" vertex="1">
          <mxGeometry x="70" y="250" width="100" height="30" as="geometry" />
        </mxCell>
        <mxCell id="uQjoeCXEevMCi2fpwpuB-10" value="nome" style="rounded=0;whiteSpace=wrap;html=1;" parent="1" vertex="1">
          <mxGeometry x="160" y="280" width="80" height="40" as="geometry" />
        </mxCell>
        <mxCell id="uQjoeCXEevMCi2fpwpuB-15" value="sigla&lt;hr&gt;" style="rounded=0;whiteSpace=wrap;html=1;" parent="1" vertex="1">
          <mxGeometry x="80" y="400" width="80" height="40" as="geometry" />
        </mxCell>
        <mxCell id="uQjoeCXEevMCi2fpwpuB-16" value="Projeto" style="text;html=1;align=center;verticalAlign=middle;resizable=0;points=[];autosize=1;strokeColor=none;fillColor=none;" parent="1" vertex="1">
          <mxGeometry x="90" y="370" width="60" height="30" as="geometry" />
        </mxCell>
        <mxCell id="uQjoeCXEevMCi2fpwpuB-17" value="nome" style="rounded=0;whiteSpace=wrap;html=1;" parent="1" vertex="1">
          <mxGeometry x="160" y="400" width="80" height="40" as="geometry" />
        </mxCell>
        <mxCell id="uQjoeCXEevMCi2fpwpuB-18" value="data&amp;nbsp; conclusão" style="rounded=0;whiteSpace=wrap;html=1;" parent="1" vertex="1">
          <mxGeometry x="240" y="400" width="80" height="40" as="geometry" />
        </mxCell>
        <mxCell id="uQjoeCXEevMCi2fpwpuB-19" value="estado" style="rounded=0;whiteSpace=wrap;html=1;" parent="1" vertex="1">
          <mxGeometry x="240" y="280" width="80" height="40" as="geometry" />
        </mxCell>
        <mxCell id="uQjoeCXEevMCi2fpwpuB-20" value="cidade" style="rounded=0;whiteSpace=wrap;html=1;" parent="1" vertex="1">
          <mxGeometry x="320" y="280" width="80" height="40" as="geometry" />
        </mxCell>
        <mxCell id="uQjoeCXEevMCi2fpwpuB-21" value="país" style="rounded=0;whiteSpace=wrap;html=1;" parent="1" vertex="1">
          <mxGeometry x="400" y="280" width="80" height="40" as="geometry" />
        </mxCell>
        <mxCell id="uQjoeCXEevMCi2fpwpuB-22" value="cpf&lt;br&gt;&lt;hr&gt;" style="rounded=0;whiteSpace=wrap;html=1;" parent="1" vertex="1">
          <mxGeometry x="427" y="360" width="80" height="40" as="geometry" />
        </mxCell>
        <mxCell id="uQjoeCXEevMCi2fpwpuB-23" value="Dependente" style="text;html=1;align=center;verticalAlign=middle;resizable=0;points=[];autosize=1;strokeColor=none;fillColor=none;" parent="1" vertex="1">
          <mxGeometry x="430" y="330" width="90" height="30" as="geometry" />
        </mxCell>
        <mxCell id="uQjoeCXEevMCi2fpwpuB-24" value="nome" style="rounded=0;whiteSpace=wrap;html=1;" parent="1" vertex="1">
          <mxGeometry x="507" y="360" width="80" height="40" as="geometry" />
        </mxCell>
        <mxCell id="uQjoeCXEevMCi2fpwpuB-25" value="sexo" style="rounded=0;whiteSpace=wrap;html=1;" parent="1" vertex="1">
          <mxGeometry x="587" y="360" width="80" height="40" as="geometry" />
        </mxCell>
        <mxCell id="uQjoeCXEevMCi2fpwpuB-26" value="grau parentesco" style="rounded=0;whiteSpace=wrap;html=1;" parent="1" vertex="1">
          <mxGeometry x="667" y="360" width="80" height="40" as="geometry" />
        </mxCell>
        <mxCell id="uQjoeCXEevMCi2fpwpuB-27" value="data nascimento" style="rounded=0;whiteSpace=wrap;html=1;" parent="1" vertex="1">
          <mxGeometry x="747" y="360" width="80" height="40" as="geometry" />
        </mxCell>
        <mxCell id="P5BSBs_63VONK6Lbz1D1-8" style="edgeStyle=orthogonalEdgeStyle;rounded=0;orthogonalLoop=1;jettySize=auto;html=1;exitX=0;exitY=0.25;exitDx=0;exitDy=0;entryX=0;entryY=0.5;entryDx=0;entryDy=0;" edge="1" parent="1" source="uQjoeCXEevMCi2fpwpuB-28" target="uQjoeCXEevMCi2fpwpuB-1">
          <mxGeometry relative="1" as="geometry">
            <mxPoint x="40" y="260" as="targetPoint" />
            <Array as="points">
              <mxPoint x="41" y="370" />
              <mxPoint x="41" y="180" />
            </Array>
          </mxGeometry>
        </mxCell>
        <mxCell id="uQjoeCXEevMCi2fpwpuB-28" value="funcionário&lt;hr&gt;" style="rounded=0;whiteSpace=wrap;html=1;" parent="1" vertex="1">
          <mxGeometry x="347" y="360" width="80" height="40" as="geometry" />
        </mxCell>
        <mxCell id="uQjoeCXEevMCi2fpwpuB-29" value="super funcionário" style="rounded=0;whiteSpace=wrap;html=1;" parent="1" vertex="1">
          <mxGeometry x="560" y="160" width="80" height="40" as="geometry" />
        </mxCell>
        <mxCell id="uQjoeCXEevMCi2fpwpuB-30" value="departamento" style="rounded=0;whiteSpace=wrap;html=1;" parent="1" vertex="1">
          <mxGeometry x="640" y="160" width="80" height="40" as="geometry" />
        </mxCell>
        <mxCell id="uQjoeCXEevMCi2fpwpuB-31" value="funcionário" style="rounded=0;whiteSpace=wrap;html=1;" parent="1" vertex="1">
          <mxGeometry x="480" y="280" width="80" height="40" as="geometry" />
        </mxCell>
        <mxCell id="P5BSBs_63VONK6Lbz1D1-9" style="edgeStyle=orthogonalEdgeStyle;rounded=0;orthogonalLoop=1;jettySize=auto;html=1;exitX=0;exitY=0.5;exitDx=0;exitDy=0;entryX=0;entryY=0.5;entryDx=0;entryDy=0;" edge="1" parent="1" source="uQjoeCXEevMCi2fpwpuB-32" target="uQjoeCXEevMCi2fpwpuB-8">
          <mxGeometry relative="1" as="geometry">
            <mxPoint x="60" y="300" as="targetPoint" />
          </mxGeometry>
        </mxCell>
        <mxCell id="uQjoeCXEevMCi2fpwpuB-32" value="departamento&lt;hr&gt;" style="rounded=0;whiteSpace=wrap;html=1;" parent="1" vertex="1">
          <mxGeometry x="80" y="520" width="80" height="40" as="geometry" />
        </mxCell>
        <mxCell id="uQjoeCXEevMCi2fpwpuB-33" value="Desenvolvimento" style="text;html=1;align=center;verticalAlign=middle;resizable=0;points=[];autosize=1;strokeColor=none;fillColor=none;" parent="1" vertex="1">
          <mxGeometry x="60" y="490" width="120" height="30" as="geometry" />
        </mxCell>
        <mxCell id="P5BSBs_63VONK6Lbz1D1-11" style="edgeStyle=orthogonalEdgeStyle;rounded=0;orthogonalLoop=1;jettySize=auto;html=1;exitX=0.5;exitY=0;exitDx=0;exitDy=0;" edge="1" parent="1" source="uQjoeCXEevMCi2fpwpuB-34" target="uQjoeCXEevMCi2fpwpuB-15">
          <mxGeometry relative="1" as="geometry" />
        </mxCell>
        <mxCell id="uQjoeCXEevMCi2fpwpuB-34" value="projeto&lt;hr&gt;" style="rounded=0;whiteSpace=wrap;html=1;" parent="1" vertex="1">
          <mxGeometry x="160" y="520" width="80" height="40" as="geometry" />
        </mxCell>
        <mxCell id="uQjoeCXEevMCi2fpwpuB-35" value="horas" style="rounded=0;whiteSpace=wrap;html=1;" parent="1" vertex="1">
          <mxGeometry x="240" y="520" width="80" height="40" as="geometry" />
        </mxCell>
        <mxCell id="P5BSBs_63VONK6Lbz1D1-10" style="edgeStyle=orthogonalEdgeStyle;rounded=0;orthogonalLoop=1;jettySize=auto;html=1;exitX=0;exitY=0.5;exitDx=0;exitDy=0;entryX=0;entryY=0.25;entryDx=0;entryDy=0;" edge="1" parent="1" source="uQjoeCXEevMCi2fpwpuB-41" target="uQjoeCXEevMCi2fpwpuB-8">
          <mxGeometry relative="1" as="geometry">
            <mxPoint x="20" y="300" as="targetPoint" />
            <Array as="points">
              <mxPoint x="21" y="660" />
              <mxPoint x="21" y="290" />
            </Array>
          </mxGeometry>
        </mxCell>
        <mxCell id="uQjoeCXEevMCi2fpwpuB-41" value="departamento&lt;hr&gt;" style="rounded=0;whiteSpace=wrap;html=1;" parent="1" vertex="1">
          <mxGeometry x="80" y="640" width="80" height="40" as="geometry" />
        </mxCell>
        <mxCell id="uQjoeCXEevMCi2fpwpuB-42" value="Trabalho" style="text;html=1;align=center;verticalAlign=middle;resizable=0;points=[];autosize=1;strokeColor=none;fillColor=none;" parent="1" vertex="1">
          <mxGeometry x="85" y="610" width="70" height="30" as="geometry" />
        </mxCell>
        <mxCell id="uQjoeCXEevMCi2fpwpuB-43" value="aloca&lt;hr&gt;" style="rounded=0;whiteSpace=wrap;html=1;" parent="1" vertex="1">
          <mxGeometry x="160" y="640" width="80" height="40" as="geometry" />
        </mxCell>
        <mxCell id="uQjoeCXEevMCi2fpwpuB-44" value="horas" style="rounded=0;whiteSpace=wrap;html=1;" parent="1" vertex="1">
          <mxGeometry x="240" y="640" width="80" height="40" as="geometry" />
        </mxCell>
        <mxCell id="P5BSBs_63VONK6Lbz1D1-12" style="edgeStyle=orthogonalEdgeStyle;rounded=0;orthogonalLoop=1;jettySize=auto;html=1;exitX=0;exitY=0.5;exitDx=0;exitDy=0;entryX=0;entryY=0.75;entryDx=0;entryDy=0;" edge="1" parent="1" source="P5BSBs_63VONK6Lbz1D1-1" target="uQjoeCXEevMCi2fpwpuB-8">
          <mxGeometry relative="1" as="geometry">
            <mxPoint x="50" y="310" as="targetPoint" />
            <Array as="points">
              <mxPoint x="51" y="580" />
              <mxPoint x="51" y="310" />
            </Array>
          </mxGeometry>
        </mxCell>
        <mxCell id="P5BSBs_63VONK6Lbz1D1-1" value="departamento&lt;hr&gt;" style="rounded=0;whiteSpace=wrap;html=1;" vertex="1" parent="1">
          <mxGeometry x="414" y="560" width="80" height="40" as="geometry" />
        </mxCell>
        <mxCell id="P5BSBs_63VONK6Lbz1D1-2" value="Locais" style="text;html=1;align=center;verticalAlign=middle;resizable=0;points=[];autosize=1;strokeColor=none;fillColor=none;" vertex="1" parent="1">
          <mxGeometry x="424" y="530" width="60" height="30" as="geometry" />
        </mxCell>
        <mxCell id="P5BSBs_63VONK6Lbz1D1-3" value="cidade" style="rounded=0;whiteSpace=wrap;html=1;" vertex="1" parent="1">
          <mxGeometry x="494" y="560" width="80" height="40" as="geometry" />
        </mxCell>
        <mxCell id="P5BSBs_63VONK6Lbz1D1-4" value="estado" style="rounded=0;whiteSpace=wrap;html=1;" vertex="1" parent="1">
          <mxGeometry x="574" y="560" width="80" height="40" as="geometry" />
        </mxCell>
        <mxCell id="P5BSBs_63VONK6Lbz1D1-5" value="país" style="rounded=0;whiteSpace=wrap;html=1;" vertex="1" parent="1">
          <mxGeometry x="654" y="560" width="80" height="40" as="geometry" />
        </mxCell>
      </root>
    </mxGraphModel>
  </diagram>
</mxfile>
